<svg xmlns="http://www.w3.org/2000/svg" xmlns:xlink="http://www.w3.org/1999/xlink" width="24" height="24" viewBox="0 0 24 24">
  <defs>
    <linearGradient id="linear-gradient" x1="0.5" x2="0.5" y2="1" gradientUnits="objectBoundingBox">
      <stop offset="0" stop-color="#146fe2"/>
      <stop offset="1" stop-color="#0fe794"/>
    </linearGradient>
  </defs>
  <path id="share-link" d="M24,12.141V20.25A3.754,3.754,0,0,1,20.25,24H3.75A3.754,3.754,0,0,1,0,20.25V3.75A3.754,3.754,0,0,1,3.75,0h8.156a.938.938,0,1,1,0,1.875H3.75A1.877,1.877,0,0,0,1.875,3.75v16.5A1.877,1.877,0,0,0,3.75,22.125h16.5a1.877,1.877,0,0,0,1.875-1.875V12.141a.938.938,0,0,1,1.875,0ZM12.8,8.709a.966.966,0,0,0,.06.107c.071.109.237.36.424.617l-3.076,3.076a.938.938,0,0,0,1.326,1.326l1.7-1.7c.04.074.079.148.116.22a2.477,2.477,0,0,1,.253,1.063,4.608,4.608,0,0,1-1.586,3.065l-.086.075a.949.949,0,0,0-.1.1l-.075.086A4.611,4.611,0,0,1,8.7,18.328a2.528,2.528,0,0,1-1.492-.5l-.053-.044-.091-.07a4.052,4.052,0,0,1-.4-.35,2.8,2.8,0,0,1-.943-2.016A4.609,4.609,0,0,1,7.3,12.285l.087-.075a.95.95,0,0,0,.1-.1l.075-.086a5.339,5.339,0,0,1,2.365-1.5A.938.938,0,0,0,9.48,8.705a7.17,7.17,0,0,0-3.267,2.02c-.016.016-.032.033-.047.05l-.054.062-.062.054c-.017.015-.034.03-.05.046A6.415,6.415,0,0,0,3.844,15.35a4.64,4.64,0,0,0,1.493,3.343,5.955,5.955,0,0,0,.582.512l.03.023a.907.907,0,0,0,.084.07,4.419,4.419,0,0,0,2.663.9,6.418,6.418,0,0,0,4.414-2.157c.016-.016.032-.033.047-.051l.053-.061.062-.053c.017-.015.034-.031.05-.047a6.415,6.415,0,0,0,2.157-4.414,4.337,4.337,0,0,0-.44-1.879l-.007-.015c-.066-.132-.227-.444-.425-.76l3.025-3.025a.938.938,0,0,0-1.326-1.326L14.634,8.087c-.056-.081-.111-.162-.162-.24a2.457,2.457,0,0,1-.232-1.018,4.609,4.609,0,0,1,1.586-3.065l.087-.075a.927.927,0,0,0,.1-.1l.074-.086a4.613,4.613,0,0,1,3.065-1.586,2.527,2.527,0,0,1,1.493.5c.017.015.034.029.053.043l.091.07a4.118,4.118,0,0,1,.4.35A2.8,2.8,0,0,1,22.125,4.9a4.609,4.609,0,0,1-1.586,3.065l-.087.075a.931.931,0,0,0-.1.1l-.075.086a5.1,5.1,0,0,1-2.435,1.466.937.937,0,1,0,.4,1.832,6.937,6.937,0,0,0,3.386-1.994c.016-.016.031-.033.047-.05l.053-.062.062-.054c.017-.015.034-.03.05-.046A6.414,6.414,0,0,0,24,4.9a4.64,4.64,0,0,0-1.493-3.343,5.948,5.948,0,0,0-.582-.512l-.03-.023a.957.957,0,0,0-.084-.07A4.418,4.418,0,0,0,19.147.047,6.418,6.418,0,0,0,14.734,2.2c-.016.016-.032.033-.047.05l-.053.062-.062.053c-.017.015-.034.03-.05.047a6.415,6.415,0,0,0-2.157,4.414,4.337,4.337,0,0,0,.44,1.879Zm0,0" fill="url(#linear-gradient)"/>
</svg>
